<svg width="28" height="28" viewBox="0 0 28 28" fill="none" xmlns="http://www.w3.org/2000/svg">
<rect width="28" height="28" rx="13.8409" fill="#FFC6C9"/>
<path d="M16.5538 17.4148L19.286 19.4414C19.5297 19.6223 19.6914 19.8925 19.7358 20.1927C19.7802 20.4929 19.7035 20.7984 19.5226 21.0421C19.3417 21.2857 19.0714 21.4475 18.7712 21.4918C18.4711 21.5362 18.1656 21.4595 17.922 21.2786C17.7928 21.1815 17.6852 21.0587 17.6057 20.918L15.9502 17.9449C15.9049 17.8629 15.889 17.7678 15.9051 17.6755C15.9213 17.5832 15.9684 17.4991 16.0389 17.4372C16.1093 17.3754 16.1987 17.3394 16.2923 17.3353C16.386 17.3312 16.4782 17.3593 16.5538 17.4148Z" stroke="#EC888D" stroke-width="1.2241" stroke-linecap="round" stroke-linejoin="round"/>
<circle cx="12.3714" cy="12.5417" r="5.93182" transform="rotate(-41.2978 12.3714 12.5417)" stroke="#EC888D" stroke-width="1.31818"/>
</svg>
